<svg id="Layer_1" data-name="Layer 1" xmlns="http://www.w3.org/2000/svg" xmlns:xlink="http://www.w3.org/1999/xlink" viewBox="0 0 792 264.81"><defs><style>.cls-1{fill:#fff;}.cls-2{fill:#356a89;}.cls-3{fill:#57aaa7;}.cls-4{fill:#999;}.cls-5{mask:url(#mask);}.cls-6{fill:url(#linear-gradient);}</style><mask id="mask" x="566.27" y="24.46" width="117.35" height="103.21" maskUnits="userSpaceOnUse"><g transform="translate(-3.91 -1.35)"><path class="cls-1" d="M627,111.2s51.67-27.74,13.24-78c0,0-2.54,14.88-17.1,26.35,0,0-18.23,15.61-8,37.69,0,0-8.27-6.2-17.51-4,0,0-10.27,4-19.17-.46,0,0,8.87,36.24,42.46,20.67A30.86,30.86,0,0,1,597,105.49s12.58,7.63,25.24,5.13c0,0,15.7-15.73,17.26-42.4C639.46,68.22,643.24,87.15,627,111.2Z"/><path class="cls-1" d="M672.2,62a6.69,6.69,0,0,0-9.36,2.63,7.35,7.35,0,0,0,2.52,9.79,6.57,6.57,0,0,0,4.76.81c-1.72,5-13.38,35.07-49.88,42.16,0,0,38.51-2.47,54.86-46.36a.36.36,0,0,0,0-.11A7.31,7.31,0,0,0,672.2,62Z"/></g></mask><linearGradient id="linear-gradient" x1="-704.41" y1="77.41" x2="-587.06" y2="77.41" gradientTransform="matrix(1, 0, 0, -1, 1274.59, 154.83)" gradientUnits="userSpaceOnUse"><stop offset="0" stop-color="#efa49a"/><stop offset="0.32" stop-color="#efaca3"/><stop offset="0.84" stop-color="#efc3bd"/><stop offset="0.99" stop-color="#efcac5"/></linearGradient></defs><title>header</title><path class="cls-2" d="M196.94,180.34a50.76,50.76,0,0,0,15.23-2.08,26.32,26.32,0,0,0,12-7.22c.18-.51.64-.75,1.37-.74,1.44,0,2.16.71,2.14,2.06a4.12,4.12,0,0,1-.56,1.27,28.68,28.68,0,0,1-13.55,8.09,72.65,72.65,0,0,1-17.82,2.93,32.21,32.21,0,0,1-7.91,13.14q-5.65,5.78-11.89,5.69c-4.71-.07-8.3-1.43-10.8-4.1a14,14,0,0,1-3.66-10.11,31.15,31.15,0,0,1,4.84-15.73,11,11,0,0,1-1.54-6.13q.12-9.42,14.78-9.22a20.94,20.94,0,0,1,12.41,5.4q5.35,4.78,5.24,13.19a10.13,10.13,0,0,1-.16,1.78A10.13,10.13,0,0,0,196.94,180.34ZM172,179.22a21.26,21.26,0,0,0-1.44,5.46c-.2,1.78-.32,3.52-.34,5.22a22.64,22.64,0,0,0,.72,6.5c.52,1.79,1.41,2.78,2.68,3q3.79,0,7.66-4.61A36.73,36.73,0,0,0,187.39,184a50,50,0,0,1-8.52-1.77A29.21,29.21,0,0,1,172,179.22ZM178.2,162q-6.78-.09-6.86,5.51-.06,4.33,4.78,7.45a34,34,0,0,0,12.42,4.51c.19-.85.34-1.61.44-2.29a18.83,18.83,0,0,0,.17-2.29,14.47,14.47,0,0,0-2.46-8.69Q184.16,162.59,178.2,162Z" transform="translate(-3.91 -1.35)"/><path class="cls-2" d="M211.52,204.74c-.89-1-1.31-2.9-1.28-5.62a42.79,42.79,0,0,1,2.63-12.83A136,136,0,0,1,218.63,172q3.21-6.82,6-11.63t3.32-4.79q4.59,1.59,4.53,5.92a10.39,10.39,0,0,1-.3,2.41,15.89,15.89,0,0,1-.85,2.41q-1.41,3.81-2.41,7c-.66,2.12-1.32,4.1-2,6l-2.12,6q-1.12,3.17-2.81,7a99.58,99.58,0,0,0,6.35-7.93q4.42-5.92,9.68-12.35a97.43,97.43,0,0,1,10.74-11.31q5.49-4.89,9.56-4.83c2.35,0,4.14,1.42,5.37,4.15a10,10,0,0,1,.49,4.08,79.76,79.76,0,0,1-1.11,11.19,84.84,84.84,0,0,0-1.11,11.7l0,2a5.2,5.2,0,0,0,.25,1.79q8.85-11.85,16.94-18t13.25-6a5.07,5.07,0,0,1,5.37,4.15,35.35,35.35,0,0,1,.83,7.91q.07,4.83.55,9.68a28.56,28.56,0,0,0,1.92,8.31,5.33,5.33,0,0,0,5.24,3.51q4.6.06,12.14-4.67t18-17.07q2.48-2.5,4.37-2.48c.91,0,1.35.44,1.34,1.29a4.43,4.43,0,0,1-1.39,2.78q-12.42,14.61-21,20t-14.87,5.26a13.77,13.77,0,0,1-8.11-2.4,13.29,13.29,0,0,1-4.68-4.91,23.8,23.8,0,0,1-2.48-6.53,44.17,44.17,0,0,1-1-6.89q-.23-3.44-.19-6a14.08,14.08,0,0,0-.11-1.53,13.37,13.37,0,0,1-.12-1.78,7,7,0,0,1-.24-1.79q-1.63,0-5.2,3.24t-7.57,7.66q-4,4.41-7.72,8.68c-2.49,2.86-4.28,5-5.39,6.55a3.77,3.77,0,0,1-2.32,1.11c-1.18.24-2.31.44-3.4.59h-1.09a4.79,4.79,0,0,1-4.57-2.61,13.28,13.28,0,0,1-1.27-6.39,44.73,44.73,0,0,1,1.07-8.64q1-4.83,2.17-9.27t2.14-8a22.51,22.51,0,0,0,1-5.08c0-.51-.17-.77-.53-.78-1.08,0-3.1,1.58-6,4.76s-6.2,7-9.79,11.58-7.24,9.37-10.92,14.49-6.84,9.71-9.42,13.75c-.74,1-2,1.5-3.82,1.48A4.11,4.11,0,0,1,211.52,204.74Z" transform="translate(-3.91 -1.35)"/><path class="cls-3" d="M513.12,157.52a9.57,9.57,0,0,1,5,8.73,13,13,0,0,1-3.65,8.6,38.11,38.11,0,0,1-9.19,7.39,32.47,32.47,0,0,1-10.51,4c-.19.85-.34,1.62-.44,2.29a19,19,0,0,0-.17,2.29,15,15,0,0,0,1.67,7.16q1.71,3.33,6.31,4.41a13.21,13.21,0,0,0,3,.3,32.77,32.77,0,0,0,12.12-2.5,93.69,93.69,0,0,0,13.11-6.31,98.22,98.22,0,0,0,11.78-8,53.71,53.71,0,0,0,7.84-7.28,2.88,2.88,0,0,1,2.19-1.49c.9,0,1.35.69,1.33,2.05a6.23,6.23,0,0,1-1.69,4.31q-7.71,8.29-20.85,16a73.65,73.65,0,0,1-14.07,6.8,39.26,39.26,0,0,1-13.74,2.49l-2.58,0a7.17,7.17,0,0,1-2.57-.55q-7.29-2.13-10.22-6.89A19.81,19.81,0,0,1,485,190.49a35.84,35.84,0,0,1,2.34-11.94,47,47,0,0,1,5.86-11.13,35.62,35.62,0,0,1,7.84-8.16c2.84-2.09,5.52-3.11,8.05-3.08A8.12,8.12,0,0,1,513.12,157.52Zm-.11,8.14a2.79,2.79,0,0,0-1.89-.53,7.62,7.62,0,0,0-4.64,1.84,28.76,28.76,0,0,0-4.68,4.52,48.42,48.42,0,0,0-3.87,5.3,13.46,13.46,0,0,0-2,4.17c.73-.33,2-1,3.83-2a61.68,61.68,0,0,0,5.61-3.49,27.55,27.55,0,0,0,5.08-4.51A9.68,9.68,0,0,0,513,165.66Z" transform="translate(-3.91 -1.35)"/><path class="cls-3" d="M588.53,179.46a36.39,36.39,0,0,0-.94,9.15q-.15,10.45,5,10.52,3,0,7.09-2.83a91.55,91.55,0,0,0,8.1-6.38,85.53,85.53,0,0,0,7-6.91,49.22,49.22,0,0,0,3.86-4.66c1.1-1.17,2-1.75,2.74-1.74,1.09,0,1.62.62,1.6,1.8a7,7,0,0,1-1.68,3.54c-1.1,1.35-2.85,3.32-5.23,5.92s-5,5.19-7.85,7.78a55.29,55.29,0,0,1-9,6.75,17.37,17.37,0,0,1-9.13,2.8,8.22,8.22,0,0,1-5.13-1.72,15.44,15.44,0,0,1-3.74-4.39,21.06,21.06,0,0,1-2.36-5.89,26.24,26.24,0,0,1-.72-6.5,13.68,13.68,0,0,1,.32-3.31A38.89,38.89,0,0,1,574,190a57.83,57.83,0,0,1-6.88,7.16,49.25,49.25,0,0,1-8,5.75,15,15,0,0,1-7.64,2.31,7.71,7.71,0,0,1-5.66-2.24q-2.14-2.19-2.08-6.53a30.24,30.24,0,0,1,2.46-10.79,49.12,49.12,0,0,1,6.12-11,45.57,45.57,0,0,1,8.13-8.55q4.38-3.49,8.46-3.44a11.59,11.59,0,0,1,7.28,2.9,33.62,33.62,0,0,1,5.62,5.68,7.61,7.61,0,0,1,3.27-.71,4.85,4.85,0,0,1,3.24,1.19,4.55,4.55,0,0,1,1.3,3.71,6.75,6.75,0,0,1-.29,1.78A18.58,18.58,0,0,1,588.53,179.46Zm-10-5a21.48,21.48,0,0,0-4.44-3,12.08,12.08,0,0,0-4.18-1.72q-1.91,0-4.93,3.63a60,60,0,0,0-5.82,8.45,95.61,95.61,0,0,0-4.89,9.61c-1.4,3.21-2.11,5.57-2.13,7.1,0,.34.17.51.54.52,1.44,0,3.31-.76,5.59-2.34a55.06,55.06,0,0,0,7.14-6,106.16,106.16,0,0,0,7.3-7.92A52.75,52.75,0,0,0,578.56,174.48Z" transform="translate(-3.91 -1.35)"/><path class="cls-3" d="M636.62,169.18a13.58,13.58,0,0,0-5.26,3.36,37.18,37.18,0,0,0-5.31,6.42,37.58,37.58,0,0,0-4.1,8.22,26.33,26.33,0,0,0-1.62,8.51,11.45,11.45,0,0,0,2.73,8.19q2.81,3.1,8.78,3.18a33.87,33.87,0,0,0,10.88-1.88A71,71,0,0,0,655,199.75a92.26,92.26,0,0,0,12.6-8.49,85.6,85.6,0,0,0,11.55-11q2.21-2.78,3.84-2.75c.9,0,1.35.53,1.34,1.55a5.35,5.35,0,0,1-1.68,3.54,75.78,75.78,0,0,1-12,12.31,94.89,94.89,0,0,1-13.84,9.49,74.27,74.27,0,0,1-14.2,6.17,42.28,42.28,0,0,1-13,2.1q-9.51-.12-13.5-5.28a19.37,19.37,0,0,1-3.89-12.53,34.17,34.17,0,0,1,2.19-11.18,43.54,43.54,0,0,1,5.44-10.49,33.15,33.15,0,0,1,7.43-7.67,13.85,13.85,0,0,1,8.46-2.94,10.13,10.13,0,0,1,5.94,2q2.69,2,2.63,6a10.89,10.89,0,0,1-1.17,4.95c-.75,1.43-1.59,2.23-2.5,2.38-1.1,0-1.73-1.08-1.88-3.21A9.61,9.61,0,0,0,636.62,169.18Z" transform="translate(-3.91 -1.35)"/><path class="cls-3" d="M780.36,7.67a33.18,33.18,0,0,1,6.53,8.5,54.75,54.75,0,0,1,5,12.42,115.83,115.83,0,0,1,3,15.33,117.63,117.63,0,0,1,1,17.2,128.11,128.11,0,0,1-4.37,31,83.44,83.44,0,0,1-13.42,28.34,71.15,71.15,0,0,1-24,20.54q-14.76,7.95-36.2,7.65a124.93,124.93,0,0,1-18.7-1.79l-10,39.34c1.66-2,3.49-4.07,5.51-6.17a75.92,75.92,0,0,1,6-5.64,33.94,33.94,0,0,1,5.89-4,11.39,11.39,0,0,1,5.32-1.45,13.73,13.73,0,0,1,5.81,1.74A5.46,5.46,0,0,1,721,176q0,2.53.32,6.62a44.91,44.91,0,0,0,1.38,7.92,38.08,38.08,0,0,0,2.48,6.78c1,2,2.17,3.05,3.62,3.24a14.52,14.52,0,0,0,7.08-1.69,34.22,34.22,0,0,0,7-5.12,112.51,112.51,0,0,0,8-8.17q4.27-4.77,9.79-11.07a3.41,3.41,0,0,1,2.73-1.23c1.26,0,1.89.62,1.87,1.81a3,3,0,0,1-1.11,2.27q-3.31,3.78-7.45,8.56t-8.54,9.18a62.92,62.92,0,0,1-8.79,7.39,14.69,14.69,0,0,1-8.45,2.93,8.51,8.51,0,0,1-5.94-2.63,11.84,11.84,0,0,1-5.91-4,23.9,23.9,0,0,1-3.84-6.8,38.58,38.58,0,0,1-2.06-8.18,52.41,52.41,0,0,1-.56-8.16q-4.11,2-9.47,7.64t-10.34,11.7q-5,6-8.57,10.83c-2.4,3.19-3.78,4.79-4.14,4.78h-.54a5.47,5.47,0,0,1-1.89-.41,6.77,6.77,0,0,1-2-1.17,2.78,2.78,0,0,1-.92-2.31,50,50,0,0,1,1.33-7.62q1.31-5.84,3.45-14.21t5-18.65q2.85-10.28,6-20.93l-7.57-2.15c-1.45-.35-3.83-1-7.17-1.88s-7-1.84-10.95-2.83-7.88-1.85-11.77-2.58a57.28,57.28,0,0,0-9.34-1.15c-2.17,0-3.27.38-3.28,1.23a3.78,3.78,0,0,0,.39,1.4,4,4,0,0,1,.38,1.66,2.75,2.75,0,0,1-1,2.28,3.52,3.52,0,0,1-2.32.73q-3.25,0-3.19-4.12a5.83,5.83,0,0,1,3.32-5.17,14.23,14.23,0,0,1,7.36-1.81,87.48,87.48,0,0,1,16,1.75q8.13,1.65,14.75,3.52t10.94,3.47a37.25,37.25,0,0,1,4.59,1.84q3.42-11.65,7.83-26.63t9.79-30.56Q714.64,68.65,721,53.71A210.53,210.53,0,0,1,734.36,27,81.77,81.77,0,0,1,749.28,8.26q7.83-7,16.25-6.91Q773.12,1.45,780.36,7.67Zm-2.48,3Q772.51,6,767.9,6q-7.86-.1-15.59,8.82a115.55,115.55,0,0,0-14.84,22.85,291.54,291.54,0,0,0-13.32,30.5Q718,84.74,713,100t-8.11,26.89q-3.15,11.67-4.29,15.73l-.29,1a80.8,80.8,0,0,0,18.42,2.55q18.72.27,31.87-8.34a72.46,72.46,0,0,0,21.75-22.23,101.38,101.38,0,0,0,12.63-30,140.22,140.22,0,0,0,4.24-31.65,100.43,100.43,0,0,0-2.75-26.15Q783.51,16.13,777.88,10.7Z" transform="translate(-3.91 -1.35)"/><path class="cls-4" d="M197.31,260.61V241.78h2.11v7.87a4,4,0,0,1,1.81-1.68,6,6,0,0,1,2.47-.51,6.16,6.16,0,0,1,2.58.52,4.35,4.35,0,0,1,1.86,1.62,5,5,0,0,1,.69,2.76v8.25h-2.1v-7.53a3.89,3.89,0,0,0-.93-3,3.34,3.34,0,0,0-2.31-.84,4.49,4.49,0,0,0-1.89.44,3.62,3.62,0,0,0-1.56,1.43,4.91,4.91,0,0,0-.62,2.65v6.83Z" transform="translate(-3.91 -1.35)"/><path class="cls-4" d="M217.87,260.06a5.75,5.75,0,0,1-2.28-2.33,8.3,8.3,0,0,1,0-7.13,5.61,5.61,0,0,1,2.22-2.33,6.49,6.49,0,0,1,3.26-.81,6.08,6.08,0,0,1,3.11.76,5.15,5.15,0,0,1,2,2.1,6.43,6.43,0,0,1,.7,3c0,.28,0,.54,0,.79a5.42,5.42,0,0,1-.08.66H216.14v-1.84h9.71l-1.1.8a4.22,4.22,0,0,0-.85-3.27,3.6,3.6,0,0,0-2.89-1.19,4.17,4.17,0,0,0-2.22.58,3.83,3.83,0,0,0-1.45,1.69,6.26,6.26,0,0,0-.51,2.63,6.08,6.08,0,0,0,.52,2.63,3.82,3.82,0,0,0,1.5,1.69,4.38,4.38,0,0,0,2.29.58,4.77,4.77,0,0,0,2.32-.51,4.15,4.15,0,0,0,1.5-1.5l1.65,1a5.43,5.43,0,0,1-2.15,2.1,6.81,6.81,0,0,1-3.27.76A6.72,6.72,0,0,1,217.87,260.06Z" transform="translate(-3.91 -1.35)"/><path class="cls-4" d="M235,241.78v15.56a2,2,0,0,0,.36,1.35,1.62,1.62,0,0,0,1.19.37,4.24,4.24,0,0,0,.87-.07c.22-.06.53-.15.92-.29l-.34,1.81a4.38,4.38,0,0,1-.93.27,5.69,5.69,0,0,1-1,.09,3.06,3.06,0,0,1-2.38-.85,3.77,3.77,0,0,1-.78-2.61V241.78Z" transform="translate(-3.91 -1.35)"/><path class="cls-4" d="M243.13,266V247.71H245l.19,3.15-.29-.36a4.47,4.47,0,0,1,1-1.59,5,5,0,0,1,1.66-1.07,5.92,5.92,0,0,1,5.06.42,5.78,5.78,0,0,1,2.17,2.29,7.49,7.49,0,0,1,.82,3.61,7.39,7.39,0,0,1-.83,3.6,5.8,5.8,0,0,1-5.2,3.11,5.13,5.13,0,0,1-2.85-.79,4.42,4.42,0,0,1-1.75-2l.26-.38V266Zm6.23-7a3.69,3.69,0,0,0,3-1.34,5.44,5.44,0,0,0,1.09-3.56,5.57,5.57,0,0,0-1.06-3.56,3.62,3.62,0,0,0-3-1.34,4,4,0,0,0-2.21.61,4,4,0,0,0-1.47,1.7,6.63,6.63,0,0,0,0,5.17,4,4,0,0,0,1.44,1.72A4,4,0,0,0,249.36,259.06Z" transform="translate(-3.91 -1.35)"/><path class="cls-4" d="M262.78,245.24a1.55,1.55,0,0,1-1.15-.43,1.67,1.67,0,0,1,0-2.24,1.74,1.74,0,0,1,2.29,0,1.65,1.65,0,0,1,0,2.24A1.54,1.54,0,0,1,262.78,245.24Zm1.05,2.47v12.9h-2.1v-12.9Z" transform="translate(-3.91 -1.35)"/><path class="cls-4" d="M270.83,260.61v-12.9h1.84l.18,2.89-.34-.28a4.4,4.4,0,0,1,1.13-1.66,4.22,4.22,0,0,1,1.64-.92,6.65,6.65,0,0,1,1.94-.28,6.15,6.15,0,0,1,2.57.52,4.29,4.29,0,0,1,1.86,1.62,5,5,0,0,1,.7,2.76v8.25h-2.11v-7.53a3.89,3.89,0,0,0-.93-3,3.33,3.33,0,0,0-2.3-.84,4.5,4.5,0,0,0-1.9.44,3.66,3.66,0,0,0-1.56,1.42,4.9,4.9,0,0,0-.62,2.63v6.86Z" transform="translate(-3.91 -1.35)"/><path class="cls-4" d="M296.28,259a4.55,4.55,0,0,1,2.92.84,2.69,2.69,0,0,1,1.06,2.23,3.13,3.13,0,0,1-.86,2.19,5.44,5.44,0,0,1-2.29,1.43,9.54,9.54,0,0,1-3.22.51,8.36,8.36,0,0,1-4.64-1,2.94,2.94,0,0,1-1.54-2.47,2.76,2.76,0,0,1,.7-1.85,3.24,3.24,0,0,1,2.35-.91l-.18.39a3.68,3.68,0,0,1-1.52-.79,2.06,2.06,0,0,1-.61-1.61,2.4,2.4,0,0,1,.8-1.82,4,4,0,0,1,2.38-.94l1.13.69a3.13,3.13,0,0,0-1.83.64,1.47,1.47,0,0,0-.54,1.09,1.18,1.18,0,0,0,.54,1.07,2.81,2.81,0,0,0,1.51.35Zm-2.6-11.5a6.7,6.7,0,0,1,2.8.55,4.52,4.52,0,0,1,1.91,1.54,4.1,4.1,0,0,1,0,4.52,4.54,4.54,0,0,1-1.91,1.55,6.7,6.7,0,0,1-2.8.55,5.87,5.87,0,0,1-4-1.22,4,4,0,0,1-1.39-3.13,3.9,3.9,0,0,1,.68-2.27,4.52,4.52,0,0,1,1.91-1.54A6.73,6.73,0,0,1,293.68,247.46Zm.18,17a8.48,8.48,0,0,0,2.52-.31,3.51,3.51,0,0,0,1.46-.8,1.53,1.53,0,0,0,.47-1.06,1.31,1.31,0,0,0-.57-1.11,3.64,3.64,0,0,0-2-.41h-4a2.26,2.26,0,0,0-1.42.43,1.35,1.35,0,0,0-.58,1.17,1.7,1.7,0,0,0,1.11,1.52A6.92,6.92,0,0,0,293.86,264.43Zm-.18-15.3a3.57,3.57,0,0,0-2.29.74,2.51,2.51,0,0,0,0,3.88,3.87,3.87,0,0,0,4.58,0,2.51,2.51,0,0,0,0-3.88A3.56,3.56,0,0,0,293.68,249.13Zm6.6-3.79.48,1.81a4.79,4.79,0,0,0-1.57.22,1.81,1.81,0,0,0-1,.69,2,2,0,0,0-.3,1.23l-1.32-.54a3.33,3.33,0,0,1,.25-1.44,3,3,0,0,1,.79-1.07,3.81,3.81,0,0,1,1.18-.67A4.61,4.61,0,0,1,300.28,245.34Z" transform="translate(-3.91 -1.35)"/><path class="cls-4" d="M316.38,260.61v-12.9h1.84l.13,2a4.24,4.24,0,0,1,1.86-1.73,5.42,5.42,0,0,1,2.35-.54,5.81,5.81,0,0,1,2.63.61,4.26,4.26,0,0,1,1.89,1.91,3.77,3.77,0,0,1,1.19-1.43,5.42,5.42,0,0,1,1.67-.82,6,6,0,0,1,1.72-.27,5.89,5.89,0,0,1,2.41.51,4.53,4.53,0,0,1,1.88,1.6,4.86,4.86,0,0,1,.73,2.79v8.25h-2.1v-8.05a3.14,3.14,0,0,0-.9-2.52,3.22,3.22,0,0,0-2.2-.78,4,4,0,0,0-1.92.49,3.65,3.65,0,0,0-1.44,1.45,4.66,4.66,0,0,0-.54,2.34v7.07h-2.1v-8.05a3.14,3.14,0,0,0-.9-2.52,3.22,3.22,0,0,0-2.2-.78,4,4,0,0,0-1.78.45,3.75,3.75,0,0,0-1.51,1.43,4.83,4.83,0,0,0-.61,2.58v6.89Z" transform="translate(-3.91 -1.35)"/><path class="cls-4" d="M349,247.46a6.56,6.56,0,0,1,3.3.8,5.6,5.6,0,0,1,2.25,2.3,8.31,8.31,0,0,1,0,7.2,5.57,5.57,0,0,1-2.25,2.31,6.66,6.66,0,0,1-3.3.8,6.73,6.73,0,0,1-3.29-.8,5.65,5.65,0,0,1-2.26-2.31,8.4,8.4,0,0,1,0-7.2,5.69,5.69,0,0,1,2.26-2.3A6.62,6.62,0,0,1,349,247.46Zm0,1.78a4.22,4.22,0,0,0-2.29.59,3.91,3.91,0,0,0-1.46,1.69,7.06,7.06,0,0,0,0,5.27,4,4,0,0,0,1.46,1.71,4.31,4.31,0,0,0,2.29.59,4.26,4.26,0,0,0,2.29-.59,3.9,3.9,0,0,0,1.46-1.71,7.06,7.06,0,0,0,0-5.27,3.84,3.84,0,0,0-1.46-1.69A4.17,4.17,0,0,0,349,249.24Z" transform="translate(-3.91 -1.35)"/><path class="cls-4" d="M361.43,260.61v-12.9h1.84l.14,2a4.27,4.27,0,0,1,1.85-1.73,5.45,5.45,0,0,1,2.35-.54,5.81,5.81,0,0,1,2.63.61,4.23,4.23,0,0,1,1.9,1.91,3.74,3.74,0,0,1,1.18-1.43,5.53,5.53,0,0,1,1.67-.82,6.07,6.07,0,0,1,1.72-.27,5.82,5.82,0,0,1,2.41.51,4.53,4.53,0,0,1,1.88,1.6,4.86,4.86,0,0,1,.74,2.79v8.25h-2.11v-8.05a3.17,3.17,0,0,0-.89-2.52,3.24,3.24,0,0,0-2.21-.78,4,4,0,0,0-1.92.49,3.63,3.63,0,0,0-1.43,1.45,4.66,4.66,0,0,0-.54,2.34v7.07h-2.11v-8.05a3.17,3.17,0,0,0-.89-2.52,3.24,3.24,0,0,0-2.21-.78,4,4,0,0,0-1.78.45,3.75,3.75,0,0,0-1.51,1.43,4.93,4.93,0,0,0-.6,2.58v6.89Z" transform="translate(-3.91 -1.35)"/><path class="cls-4" d="M389.79,260.06a6,6,0,0,1-2.48-2.26l1.79-1.26a4.3,4.3,0,0,0,1.71,1.87,5.32,5.32,0,0,0,2.68.65,3.81,3.81,0,0,0,2.17-.53,1.59,1.59,0,0,0,.81-1.38,1.44,1.44,0,0,0-.39-1,2.4,2.4,0,0,0-1.32-.64l-3.16-.64a5.09,5.09,0,0,1-2.72-1.28,3.11,3.11,0,0,1-.86-2.25,3.26,3.26,0,0,1,.63-1.94,4.58,4.58,0,0,1,1.79-1.41,6.38,6.38,0,0,1,2.66-.52,6.75,6.75,0,0,1,3.27.74,4.7,4.7,0,0,1,2,2.12l-1.77,1.13a3.1,3.1,0,0,0-1.39-1.63,4.24,4.24,0,0,0-2.13-.56,4.61,4.61,0,0,0-1.61.26,2.28,2.28,0,0,0-1,.71,1.59,1.59,0,0,0-.36,1,1.53,1.53,0,0,0,.43,1.07A2.76,2.76,0,0,0,392,253l3.29.67a4.74,4.74,0,0,1,2.53,1.16,2.78,2.78,0,0,1,.78,2,3.47,3.47,0,0,1-1.45,2.93,6.08,6.08,0,0,1-3.78,1.1A7.73,7.73,0,0,1,389.79,260.06Z" transform="translate(-3.91 -1.35)"/><path class="cls-4" d="M422.66,247.71v1.78h-9.12v-1.78Zm-2.18-6.06a5,5,0,0,1,1.29.16,2.29,2.29,0,0,1,.94.44l-.55,1.67a2.15,2.15,0,0,0-.68-.29,3.49,3.49,0,0,0-.82-.09,2.68,2.68,0,0,0-1.76.52,2.1,2.1,0,0,0-.63,1.69v14.86h-2.1V245.55a4.52,4.52,0,0,1,.26-1.58,3.09,3.09,0,0,1,.8-1.23,3.62,3.62,0,0,1,1.35-.8A5.79,5.79,0,0,1,420.48,241.65Zm6,3.59a1.55,1.55,0,0,1-1.15-.43,1.67,1.67,0,0,1,0-2.24,1.74,1.74,0,0,1,2.29,0,1.65,1.65,0,0,1,0,2.24A1.54,1.54,0,0,1,426.53,245.24Zm1.05,2.47v12.9h-2.1v-12.9Z" transform="translate(-3.91 -1.35)"/><path class="cls-4" d="M434.58,260.61v-12.9h1.84l.18,2.89-.34-.28a4.4,4.4,0,0,1,1.13-1.66,4.22,4.22,0,0,1,1.64-.92,6.65,6.65,0,0,1,1.94-.28,6.15,6.15,0,0,1,2.57.52,4.29,4.29,0,0,1,1.86,1.62,5,5,0,0,1,.7,2.76v8.25H444v-7.53a3.89,3.89,0,0,0-.93-3,3.31,3.31,0,0,0-2.3-.84,4.54,4.54,0,0,0-1.9.44,3.66,3.66,0,0,0-1.56,1.42,4.9,4.9,0,0,0-.62,2.63v6.86Z" transform="translate(-3.91 -1.35)"/><path class="cls-4" d="M458.09,260.87a5.86,5.86,0,0,1-3-.8,5.73,5.73,0,0,1-2.18-2.31,7.39,7.39,0,0,1-.82-3.6,7.1,7.1,0,0,1,.87-3.63,6,6,0,0,1,2.29-2.29,6.24,6.24,0,0,1,3.05-.78,4.86,4.86,0,0,1,2.83.82,3.93,3.93,0,0,1,1.59,2.19l-.26.18v-8.87h2.1v18.83h-1.84l-.19-3.12.29-.15a3.7,3.7,0,0,1-.88,1.92,4.57,4.57,0,0,1-1.71,1.2A5.7,5.7,0,0,1,458.09,260.87Zm.21-1.81a3.86,3.86,0,0,0,2.2-.62,4,4,0,0,0,1.44-1.76,6.63,6.63,0,0,0,.52-2.7,5.79,5.79,0,0,0-.52-2.53,3.81,3.81,0,0,0-1.42-1.62,3.89,3.89,0,0,0-2.12-.57,3.81,3.81,0,0,0-3.1,1.34,5.41,5.41,0,0,0-1.1,3.56,5.55,5.55,0,0,0,1.07,3.56A3.65,3.65,0,0,0,458.3,259.06Z" transform="translate(-3.91 -1.35)"/><path class="cls-4" d="M483.81,260.06a6,6,0,0,1-2.47-2.26l1.79-1.26a4.19,4.19,0,0,0,1.71,1.87,5.32,5.32,0,0,0,2.68.65,3.83,3.83,0,0,0,2.17-.53,1.6,1.6,0,0,0,.8-1.38,1.47,1.47,0,0,0-.38-1,2.43,2.43,0,0,0-1.33-.64l-3.15-.64a5.13,5.13,0,0,1-2.73-1.28,3.1,3.1,0,0,1-.85-2.25,3.26,3.26,0,0,1,.63-1.94,4.51,4.51,0,0,1,1.79-1.41,6.38,6.38,0,0,1,2.66-.52,6.75,6.75,0,0,1,3.27.74,4.73,4.73,0,0,1,2,2.12l-1.76,1.13a3.15,3.15,0,0,0-1.39-1.63,4.24,4.24,0,0,0-2.13-.56,4.61,4.61,0,0,0-1.61.26,2.38,2.38,0,0,0-1,.71,1.64,1.64,0,0,0-.35,1,1.49,1.49,0,0,0,.43,1.07A2.77,2.77,0,0,0,486,253l3.29.67a4.78,4.78,0,0,1,2.54,1.16,2.78,2.78,0,0,1,.78,2,3.49,3.49,0,0,1-1.45,2.93,6.11,6.11,0,0,1-3.79,1.1A7.76,7.76,0,0,1,483.81,260.06Z" transform="translate(-3.91 -1.35)"/><path class="cls-4" d="M503.35,260.87a6.16,6.16,0,0,1-2.38-.47,3.94,3.94,0,0,1-1.81-1.5,4.81,4.81,0,0,1-.7-2.73v-8.46h2.11v7.92a3.41,3.41,0,0,0,.86,2.7,3.69,3.69,0,0,0,2.45.73,4.54,4.54,0,0,0,1.45-.24,3.44,3.44,0,0,0,1.27-.78,3.64,3.64,0,0,0,.9-1.35,5.26,5.26,0,0,0,.32-2v-7h2.11v12.9h-1.84l-.13-2a4.1,4.1,0,0,1-1.86,1.69A6.65,6.65,0,0,1,503.35,260.87Z" transform="translate(-3.91 -1.35)"/><path class="cls-4" d="M522.37,247.46a6.44,6.44,0,0,1,2.41.41,5.1,5.1,0,0,1,1.8,1.19,5.89,5.89,0,0,1,1.23,1.83l-2,.93a3.88,3.88,0,0,0-1.27-1.9,3.53,3.53,0,0,0-2.22-.66,4.35,4.35,0,0,0-2.27.58,3.72,3.72,0,0,0-1.44,1.68,7.19,7.19,0,0,0,0,5.27,3.64,3.64,0,0,0,1.44,1.69,4.26,4.26,0,0,0,2.27.58,4.55,4.55,0,0,0,1.77-.31,3,3,0,0,0,1.24-.9,3.37,3.37,0,0,0,.67-1.44l2,.67a6.16,6.16,0,0,1-1.23,2,5.15,5.15,0,0,1-1.87,1.31,6.41,6.41,0,0,1-2.48.45,6.73,6.73,0,0,1-3.29-.8,5.59,5.59,0,0,1-2.26-2.31,8.31,8.31,0,0,1,0-7.2,5.63,5.63,0,0,1,2.26-2.3A6.62,6.62,0,0,1,522.37,247.46Z" transform="translate(-3.91 -1.35)"/><path class="cls-4" d="M539.2,247.46a6.41,6.41,0,0,1,2.41.41,5.1,5.1,0,0,1,1.8,1.19,6.09,6.09,0,0,1,1.24,1.83l-2,.93a3.89,3.89,0,0,0-1.28-1.9,3.53,3.53,0,0,0-2.22-.66,4.29,4.29,0,0,0-2.26.58,3.74,3.74,0,0,0-1.45,1.68,7.19,7.19,0,0,0,0,5.27,3.66,3.66,0,0,0,1.45,1.69,4.2,4.2,0,0,0,2.26.58,4.55,4.55,0,0,0,1.77-.31,3,3,0,0,0,1.24-.9,3.25,3.25,0,0,0,.67-1.44l1.95.67a6.16,6.16,0,0,1-1.23,2,5.11,5.11,0,0,1-1.86,1.31,6.5,6.5,0,0,1-2.49.45,6.73,6.73,0,0,1-3.29-.8,5.65,5.65,0,0,1-2.26-2.31,8.41,8.41,0,0,1,0-7.2,5.69,5.69,0,0,1,2.26-2.3A6.62,6.62,0,0,1,539.2,247.46Z" transform="translate(-3.91 -1.35)"/><path class="cls-4" d="M552.76,260.06a5.73,5.73,0,0,1-2.27-2.33,7.3,7.3,0,0,1-.82-3.57,7.6,7.6,0,0,1,.8-3.56,5.74,5.74,0,0,1,2.22-2.33,6.5,6.5,0,0,1,3.27-.81,6.06,6.06,0,0,1,3.1.76,5,5,0,0,1,2,2.1,6.31,6.31,0,0,1,.7,3c0,.28,0,.54,0,.79a5.42,5.42,0,0,1-.08.66H551v-1.84h9.7l-1.1.8a4.26,4.26,0,0,0-.84-3.27,3.64,3.64,0,0,0-2.9-1.19,4.17,4.17,0,0,0-2.22.58,3.9,3.9,0,0,0-1.45,1.69,6.26,6.26,0,0,0-.51,2.63,6.08,6.08,0,0,0,.53,2.63,3.76,3.76,0,0,0,1.5,1.69,4.32,4.32,0,0,0,2.28.58,4.74,4.74,0,0,0,2.32-.51,4.15,4.15,0,0,0,1.5-1.5l1.66,1a5.46,5.46,0,0,1-2.16,2.1,7.31,7.31,0,0,1-6.59-.05Z" transform="translate(-3.91 -1.35)"/><path class="cls-4" d="M569.05,260.06a6,6,0,0,1-2.47-2.26l1.79-1.26a4.3,4.3,0,0,0,1.71,1.87,5.32,5.32,0,0,0,2.68.65,3.83,3.83,0,0,0,2.17-.53,1.58,1.58,0,0,0,.8-1.38,1.43,1.43,0,0,0-.38-1,2.4,2.4,0,0,0-1.32-.64l-3.16-.64a5.09,5.09,0,0,1-2.72-1.28,3.11,3.11,0,0,1-.86-2.25,3.26,3.26,0,0,1,.63-1.94,4.51,4.51,0,0,1,1.79-1.41,6.38,6.38,0,0,1,2.66-.52,6.75,6.75,0,0,1,3.27.74,4.63,4.63,0,0,1,2,2.12l-1.76,1.13a3.1,3.1,0,0,0-1.39-1.63,4.24,4.24,0,0,0-2.13-.56,4.61,4.61,0,0,0-1.61.26,2.38,2.38,0,0,0-1,.71,1.64,1.64,0,0,0-.35,1,1.49,1.49,0,0,0,.43,1.07,2.76,2.76,0,0,0,1.44.66l3.28.67a4.74,4.74,0,0,1,2.54,1.16,2.78,2.78,0,0,1,.78,2,3.47,3.47,0,0,1-1.45,2.93,6.09,6.09,0,0,1-3.79,1.1A7.79,7.79,0,0,1,569.05,260.06Z" transform="translate(-3.91 -1.35)"/><path class="cls-4" d="M585,260.06a6,6,0,0,1-2.47-2.26l1.78-1.26a4.3,4.3,0,0,0,1.71,1.87,5.36,5.36,0,0,0,2.69.65,3.85,3.85,0,0,0,2.17-.53,1.6,1.6,0,0,0,.8-1.38,1.47,1.47,0,0,0-.38-1,2.47,2.47,0,0,0-1.33-.64l-3.16-.64a5.13,5.13,0,0,1-2.72-1.28,3.1,3.1,0,0,1-.85-2.25,3.26,3.26,0,0,1,.63-1.94,4.44,4.44,0,0,1,1.79-1.41,6.33,6.33,0,0,1,2.65-.52,6.82,6.82,0,0,1,3.28.74,4.73,4.73,0,0,1,2,2.12l-1.76,1.13a3.12,3.12,0,0,0-1.4-1.63,4.24,4.24,0,0,0-2.13-.56,4.55,4.55,0,0,0-1.6.26,2.32,2.32,0,0,0-1,.71,1.59,1.59,0,0,0-.36,1,1.5,1.5,0,0,0,.44,1.07,2.77,2.77,0,0,0,1.43.66l3.29.67a4.82,4.82,0,0,1,2.54,1.16,2.82,2.82,0,0,1,.77,2,3.49,3.49,0,0,1-1.44,2.93,6.13,6.13,0,0,1-3.79,1.1A7.76,7.76,0,0,1,585,260.06Z" transform="translate(-3.91 -1.35)"/><path class="cls-4" d="M615.21,260.87a6.9,6.9,0,0,1-3-.59,4.46,4.46,0,0,1-1.89-1.63,4.31,4.31,0,0,1-.66-2.37,5.3,5.3,0,0,1,.22-1.56,4.52,4.52,0,0,1,.73-1.41,5.5,5.5,0,0,1,1.35-1.26,10.69,10.69,0,0,1,2.12-1.11l1.1-.54a14.57,14.57,0,0,0,1.66-1,3.48,3.48,0,0,0,1-1,2.71,2.71,0,0,0,.32-1.34,1.75,1.75,0,0,0-.56-1.4,2.22,2.22,0,0,0-1.54-.51,2.15,2.15,0,0,0-1.67.61,2,2,0,0,0-.54,1.4,3.3,3.3,0,0,0,.13.95,4.71,4.71,0,0,0,.57,1.12c.29.45.72,1,1.3,1.78s1.36,1.71,2.34,2.91,1.82,2.17,2.47,2.9a14.23,14.23,0,0,0,1.66,1.66,3.87,3.87,0,0,0,1.28.73,4.39,4.39,0,0,0,1.3.18l-.53,1.55a5.49,5.49,0,0,1-1.43-.18,4.4,4.4,0,0,1-1.47-.78,13.7,13.7,0,0,1-1.92-1.78c-.75-.79-1.68-1.84-2.78-3.17q-1.42-1.72-2.37-2.91t-1.5-2a7.38,7.38,0,0,1-.79-1.51,4.53,4.53,0,0,1-.23-1.41,3.77,3.77,0,0,1,.46-1.8,3.54,3.54,0,0,1,1.41-1.44,4.77,4.77,0,0,1,2.44-.55,4.47,4.47,0,0,1,2,.41,3.14,3.14,0,0,1,1.33,1.19,3.29,3.29,0,0,1,.49,1.83,4.88,4.88,0,0,1-.3,1.71,4.37,4.37,0,0,1-1.13,1.6,11.32,11.32,0,0,1-2.46,1.64l-.9.34a11,11,0,0,0-2.13,1.2A3.37,3.37,0,0,0,612,254.5a3.74,3.74,0,0,0-.31,1.6,2.73,2.73,0,0,0,.5,1.65,3.24,3.24,0,0,0,1.34,1.07,4.59,4.59,0,0,0,1.89.37,5.35,5.35,0,0,0,2.45-.51,6.62,6.62,0,0,0,1.84-1.47l.34-.31a9,9,0,0,0,1.07-2.4,8.73,8.73,0,0,0,.25-3l1.79.15a9.43,9.43,0,0,1-.36,3.25,8.48,8.48,0,0,1-1.46,2.89l-.39.54a7.2,7.2,0,0,1-5.74,2.53Z" transform="translate(-3.91 -1.35)"/><path class="cls-4" d="M646.88,260.87a5.31,5.31,0,0,1-2-.39,4.84,4.84,0,0,1-1.63-1.08,4.7,4.7,0,0,1-1-1.57l.29-.37-.18,3.15h-1.85V241.78h2.11v8.85l-.26-.39a4.46,4.46,0,0,1,1.77-2,5.29,5.29,0,0,1,2.86-.78,5.75,5.75,0,0,1,3,.8,5.83,5.83,0,0,1,2.19,2.29,7.49,7.49,0,0,1,.81,3.61,7.28,7.28,0,0,1-.83,3.6,5.77,5.77,0,0,1-5.19,3.11Zm-.21-1.81a3.69,3.69,0,0,0,3-1.34,6.38,6.38,0,0,0,0-7.12,3.68,3.68,0,0,0-3-1.34,3.88,3.88,0,0,0-2.17.62,4.22,4.22,0,0,0-1.46,1.73,6.75,6.75,0,0,0,0,5.17,4,4,0,0,0,1.45,1.69A3.9,3.9,0,0,0,646.67,259.06Z" transform="translate(-3.91 -1.35)"/><path class="cls-4" d="M666.71,250.84s-.26-.27-.79-.79a3,3,0,0,0-2.23-.79,4.26,4.26,0,0,0-2.35.61,3.38,3.38,0,0,0-1.36,1.84l-1.71-1a4.54,4.54,0,0,1,2-2.36,6.58,6.58,0,0,1,3.5-.86,5.7,5.7,0,0,1,3.67,1.12,4,4,0,0,1,1.4,3.29v6.24c0,.62.34.93,1,.93a4,4,0,0,0,1-.13l-.11,1.62a3,3,0,0,1-1.37.26,2.72,2.72,0,0,1-1.93-.67,2.47,2.47,0,0,1-.7-1.93l.5-.18a3.62,3.62,0,0,1-1,1.6,4.82,4.82,0,0,1-1.68.95,6,6,0,0,1-1.92.31,5.1,5.1,0,0,1-3.11-.92,3,3,0,0,1-1.23-2.59,3.13,3.13,0,0,1,1-2.37,5.47,5.47,0,0,1,2.76-1.29l5.21-1v1.7l-4.23.86A5.12,5.12,0,0,0,661,256a1.52,1.52,0,0,0-.61,1.28,1.57,1.57,0,0,0,.66,1.3,2.92,2.92,0,0,0,1.82.5,5.06,5.06,0,0,0,1.93-.36,3.27,3.27,0,0,0,1.42-1.08,2.9,2.9,0,0,0,.54-1.78v-5Z" transform="translate(-3.91 -1.35)"/><path class="cls-4" d="M678,241.78v15.56a1.9,1.9,0,0,0,.37,1.35,1.59,1.59,0,0,0,1.18.37,4.24,4.24,0,0,0,.87-.07c.23-.06.53-.15.92-.29l-.34,1.81a4.29,4.29,0,0,1-.92.27,5.89,5.89,0,0,1-1,.09,3.06,3.06,0,0,1-2.38-.85,3.77,3.77,0,0,1-.77-2.61V241.78Z" transform="translate(-3.91 -1.35)"/><path class="cls-4" d="M693.85,250.84s-.26-.27-.79-.79a3,3,0,0,0-2.23-.79,4.2,4.2,0,0,0-2.34.61,3.39,3.39,0,0,0-1.37,1.84l-1.71-1a4.59,4.59,0,0,1,2-2.36,6.61,6.61,0,0,1,3.5-.86,5.7,5.7,0,0,1,3.67,1.12,4,4,0,0,1,1.41,3.29v6.24c0,.62.33.93,1,.93a4,4,0,0,0,1-.13l-.11,1.62a3,3,0,0,1-1.36.26,2.74,2.74,0,0,1-1.94-.67,2.43,2.43,0,0,1-.69-1.93l.5-.18a3.55,3.55,0,0,1-1.06,1.6,4.82,4.82,0,0,1-1.68.95,6,6,0,0,1-1.92.31,5.07,5.07,0,0,1-3.1-.92,3,3,0,0,1-1.24-2.59,3.17,3.17,0,0,1,1-2.37,5.47,5.47,0,0,1,2.77-1.29l5.2-1v1.7l-4.23.86a5.19,5.19,0,0,0-1.95.73,1.51,1.51,0,0,0-.6,1.28,1.57,1.57,0,0,0,.66,1.3,2.86,2.86,0,0,0,1.81.5,5,5,0,0,0,1.93-.36,3.27,3.27,0,0,0,1.42-1.08,2.9,2.9,0,0,0,.54-1.78v-5Z" transform="translate(-3.91 -1.35)"/><path class="cls-4" d="M703.16,260.61v-12.9H705l.19,2.89-.34-.28a4.29,4.29,0,0,1,1.13-1.66,4.22,4.22,0,0,1,1.64-.92,6.58,6.58,0,0,1,1.93-.28,6.16,6.16,0,0,1,2.58.52A4.35,4.35,0,0,1,714,249.6a5,5,0,0,1,.69,2.76v8.25h-2.1v-7.53a3.89,3.89,0,0,0-.93-3,3.34,3.34,0,0,0-2.31-.84,4.49,4.49,0,0,0-1.89.44,3.66,3.66,0,0,0-1.56,1.42,4.81,4.81,0,0,0-.62,2.63v6.86Z" transform="translate(-3.91 -1.35)"/><path class="cls-4" d="M727,247.46a6.41,6.41,0,0,1,2.41.41,5.1,5.1,0,0,1,1.8,1.19,6.09,6.09,0,0,1,1.24,1.83l-2,.93a3.89,3.89,0,0,0-1.28-1.9,3.53,3.53,0,0,0-2.22-.66,4.29,4.29,0,0,0-2.26.58,3.74,3.74,0,0,0-1.45,1.68,7.19,7.19,0,0,0,0,5.27,3.66,3.66,0,0,0,1.45,1.69,4.2,4.2,0,0,0,2.26.58,4.55,4.55,0,0,0,1.77-.31,3,3,0,0,0,1.24-.9,3.25,3.25,0,0,0,.67-1.44l2,.67a6.16,6.16,0,0,1-1.23,2,5.11,5.11,0,0,1-1.86,1.31,6.5,6.5,0,0,1-2.49.45,6.73,6.73,0,0,1-3.29-.8,5.65,5.65,0,0,1-2.26-2.31,8.4,8.4,0,0,1,0-7.2,5.69,5.69,0,0,1,2.26-2.3A6.62,6.62,0,0,1,727,247.46Z" transform="translate(-3.91 -1.35)"/><path class="cls-4" d="M740.55,260.06a5.73,5.73,0,0,1-2.27-2.33,7.3,7.3,0,0,1-.82-3.57,7.6,7.6,0,0,1,.8-3.56,5.74,5.74,0,0,1,2.22-2.33,6.5,6.5,0,0,1,3.27-.81,6.06,6.06,0,0,1,3.1.76,5,5,0,0,1,2,2.1,6.31,6.31,0,0,1,.7,3c0,.28,0,.54,0,.79a5.42,5.42,0,0,1-.08.66H738.83v-1.84h9.7l-1.1.8a4.26,4.26,0,0,0-.84-3.27,3.64,3.64,0,0,0-2.9-1.19,4.17,4.17,0,0,0-2.22.58,3.9,3.9,0,0,0-1.45,1.69,6.26,6.26,0,0,0-.51,2.63,6.08,6.08,0,0,0,.53,2.63,3.76,3.76,0,0,0,1.5,1.69,4.36,4.36,0,0,0,2.29.58,4.73,4.73,0,0,0,2.31-.51,4.15,4.15,0,0,0,1.5-1.5l1.66,1a5.46,5.46,0,0,1-2.16,2.1,7.31,7.31,0,0,1-6.59-.05Z" transform="translate(-3.91 -1.35)"/><path class="cls-2" d="M148.82,255.91a5.45,5.45,0,0,1,3.12,1.15,2.85,2.85,0,0,1,.95,2.16,3.75,3.75,0,0,1-1.22,2.55,4.49,4.49,0,0,1-3.4,1.27,11.18,11.18,0,0,1-8.27-3.43,24.62,24.62,0,0,1-5.43-9.05,60.42,60.42,0,0,1-3-12.86,113.51,113.51,0,0,1-1-14.9q0-10.7,1.22-23t3.25-24.84q2-12.46,4.48-24.57t4.61-22.54q2.18-10.44,3.94-18.47T150.72,97q.54-3.81.81-6.75c.18-1.95.27-3.6.27-5q0-6.89-2.71-6.88-2.18,0-5.56,3.82a80.92,80.92,0,0,0-7.19,9.68q-7.87,11.71-15.74,26t-14.93,29.54q-7.07,15.29-13.3,30.69T81.52,207.52a26.27,26.27,0,0,1-2.58,5.35,4.13,4.13,0,0,1-3.66,1.78q-6.24,0-8.41-5.6T64.7,191.22q0-8.66.81-18.84t1.76-20q1-9.81,1.77-18.21t.81-13.76q0-6.36-1.63-6.36c-1.81.34-3.84,2.2-6.1,5.6a93.88,93.88,0,0,0-7.19,13.62q-3.81,8.53-8,19.74t-8.41,23.56q-4.21,12.36-8.41,25.47t-8,25.34q-2.18,6.62-5.56,9.17a10.87,10.87,0,0,1-6.38,2.54,6.5,6.5,0,0,1-4.61-1.52,4.51,4.51,0,0,1-1.63-3.32q2.45-7.12,5.7-20.5t6-29.41q2.72-16,4.61-32.86a271.28,271.28,0,0,0,1.9-30.3,96.52,96.52,0,0,0-1.63-19.61A5.09,5.09,0,0,0,19,99c-.63-.51-1.27-1-1.9-1.4l-1.76-1.15a1.93,1.93,0,0,1-.82-1.78,2.23,2.23,0,0,1,1.23-2.16,6,6,0,0,1,2.84-.64q5.43,0,8.28,3.56A23.48,23.48,0,0,1,31.05,104a49.49,49.49,0,0,1,1.63,10.44c.17,3.65.27,6.66.27,9a222.54,222.54,0,0,1-1.9,27.89q-1.9,14.9-4.48,28.39T21.28,204q-2.72,10.69-4.07,15.53,1.35-3.81,4.61-13.88t7.46-22.92q4.22-12.85,9.26-26.61t10.23-25.21A117.08,117.08,0,0,1,59.15,112q5.18-7.38,9.82-7.39a7.11,7.11,0,0,1,6.14,3.44,26,26,0,0,1,3.55,8.66,69.77,69.77,0,0,1,1.63,11.46q.42,6.24.42,11.84a254.09,254.09,0,0,1-1.89,30.44q-1.87,15.66-2.46,28.65,2.44-7.12,7.33-19.48t11.53-26.87q6.65-14.52,14.25-29.42a276.85,276.85,0,0,1,15.6-27,124,124,0,0,1,15.74-19.74Q148.55,69,155.33,69q6,0,7.87,4.45a23,23,0,0,1,1.9,9c0,1.19,0,2.33-.14,3.43s-.13,2.17-.13,3.19a103.85,103.85,0,0,1-2.31,13.75q-2,9.42-4.88,21.9t-6.11,26.87q-3.25,14.4-6,28.78t-4.48,27.89a188.17,188.17,0,0,0-1.76,23.94q0,10.19,2.17,16.55T148.82,255.91Z" transform="translate(-3.91 -1.35)"/><g class="cls-5"><rect class="cls-6" x="570.18" y="25.81" width="117.35" height="103.21" transform="translate(1253.8 153.47) rotate(-180)"/></g><path class="cls-3" d="M489.42,158.69a4.2,4.2,0,0,1,1.63-.24c1.08,0,1.62.47,1.62,1.39a2.78,2.78,0,0,1-1.22,2.31,10.14,10.14,0,0,1-2.85,1.5,23.15,23.15,0,0,1-3.52.93c-1.27.23-2.45.5-3.53.8a59.84,59.84,0,0,1-7.19,20.1,103.35,103.35,0,0,1-14,19.64,85,85,0,0,1-17.64,15q-9.5,6-17.91,6a9,9,0,0,1-5.56-1.73q-2.31-1.74-2.31-5.89,0-7.41,5.3-15.25a80.2,80.2,0,0,1,13.16-14.9,151.17,151.17,0,0,1,16.82-13.05,127.84,127.84,0,0,1,16.28-9.47,9.28,9.28,0,0,0,.27-2.08v-2.08q0-11.55-8.68-17.1t-22.79-6a32.32,32.32,0,0,1-6,3.81,14.52,14.52,0,0,1-6.24,2q-5.16,0-5.16-3.46a4.3,4.3,0,0,1,2-3.7,23.19,23.19,0,0,1,4.75-2.42c1.81-.7,3.57-1.31,5.3-1.85a11.23,11.23,0,0,0,3.93-2,6.4,6.4,0,0,0,1.63-.92A118.94,118.94,0,0,0,449.8,119a136.37,136.37,0,0,0,12.62-14.9,110.11,110.11,0,0,0,9.9-16.17q4.08-8.19,4.07-14.67,0-6-4.47-8.43t-11.54-2.42a74.07,74.07,0,0,0-17.91,2.54,160.4,160.4,0,0,0-20.89,6.93q-10.86,4.4-21.85,10a227.72,227.72,0,0,0-20.35,11.78A152.76,152.76,0,0,0,363,105.9q-7.05,6.12-10,11.44A9,9,0,0,0,357,115q2.44-2.09,5.43-4.39a65.53,65.53,0,0,1,6.24-4.28,12.6,12.6,0,0,1,6.52-2,11,11,0,0,1,2.71.35c.9.23,1.36.73,1.36,1.5q0,3-3.53,5.77a47.23,47.23,0,0,1-7.87,5,55,55,0,0,1-8.41,3.46,27.35,27.35,0,0,1-4.89,1.27,8.08,8.08,0,0,1-4.88-1.38c-1.27-.93-1.9-2.46-1.9-4.62q0-3.69,5.7-9.7a102.4,102.4,0,0,1,15.19-12.71,237.62,237.62,0,0,1,21.58-13.4q12.06-6.69,24.83-12.24a180,180,0,0,1,25.23-8.89,87.12,87.12,0,0,1,22.25-3.35,41.82,41.82,0,0,1,9.91,1.15A28.42,28.42,0,0,1,481,60.16a19.47,19.47,0,0,1,6.1,6.12,16.69,16.69,0,0,1,2.31,9,34.47,34.47,0,0,1-4.34,15.94,88.39,88.39,0,0,1-11,16.17A127.16,127.16,0,0,1,459.57,122a174.11,174.11,0,0,1-14.66,11.31,68.56,68.56,0,0,1,13.71,2.31,44.69,44.69,0,0,1,11.8,5.09,25.85,25.85,0,0,1,8.28,8.2,21.46,21.46,0,0,1,3.12,11.66,24.22,24.22,0,0,1,3.66-1C486.66,159.26,488,159,489.42,158.69ZM407.74,95.85a6.5,6.5,0,0,1,2.58-3.58,6.38,6.38,0,0,1,3.66-1.5c1.09,0,1.63.77,1.63,2.31l-20.35,118c0,1.08-.95,2-2.85,2.77a15.44,15.44,0,0,1-5.84,1.16,9.46,9.46,0,0,1-2.58-.35,1.47,1.47,0,0,1-1.22-1.5Zm29.58,119.43a55.76,55.76,0,0,0,9.9-8.66,94.54,94.54,0,0,0,8.69-11.09,103.18,103.18,0,0,0,6.91-12,58.85,58.85,0,0,0,4.35-11.67q-5.43,3.24-12.89,8.55a119.53,119.53,0,0,0-14.11,11.78,82.56,82.56,0,0,0-11.27,13.4q-4.61,6.93-4.61,12.94a1.65,1.65,0,0,0,1.9,1.84,9.5,9.5,0,0,0,3-.69,22.72,22.72,0,0,0,3.52-1.62c1.09-.61,2.08-1.19,3-1.73S437.13,215.43,437.32,215.28Z" transform="translate(-3.91 -1.35)"/></svg>